<svg width="6" height="11" viewBox="0 0 6 11" fill="none" xmlns="http://www.w3.org/2000/svg">
<path d="M5.39722 10.5C5.31835 10.5004 5.24016 10.4864 5.16714 10.4588C5.09412 10.4311 5.02771 10.3904 4.97171 10.3389L0.177273 5.89549C0.121101 5.84385 0.0765168 5.78242 0.0460908 5.71474C0.0156649 5.64705 0 5.57445 0 5.50113C0 5.42781 0.0156649 5.35521 0.0460908 5.28753C0.0765168 5.21984 0.121101 5.15841 0.177273 5.10678L4.97171 0.663347C5.08457 0.558758 5.23762 0.5 5.39722 0.5C5.55682 0.5 5.70988 0.558758 5.82273 0.663347C5.93558 0.767936 5.99898 0.90979 5.99898 1.0577C5.99898 1.20561 5.93558 1.34747 5.82273 1.45206L1.4478 5.50113L5.82273 9.55021C5.8789 9.60184 5.92348 9.66327 5.95391 9.73096C5.98434 9.79864 6 9.87124 6 9.94456C6 10.0179 5.98434 10.0905 5.95391 10.1582C5.92348 10.2259 5.8789 10.2873 5.82273 10.3389C5.76673 10.3904 5.70032 10.4311 5.6273 10.4588C5.55428 10.4864 5.47609 10.5004 5.39722 10.5Z" fill="#333333"/>
</svg>
