<svg width="20" height="21" viewBox="0 0 20 21" fill="none" xmlns="http://www.w3.org/2000/svg">
<path d="M4.375 4.48438L5.15625 17.2969C5.19336 18.0372 5.71875 18.5781 6.40625 18.5781H13.5938C14.284 18.5781 14.7996 18.0372 14.8438 17.2969L15.625 4.48438" stroke="#A9A6A0" stroke-linecap="round" stroke-linejoin="round"/>
<path d="M3.125 4.48438H16.875" stroke="#A9A6A0" stroke-miterlimit="10" stroke-linecap="round"/>
<path d="M7.5 4.48438V2.88282C7.49964 2.75652 7.52365 2.6314 7.57063 2.51464C7.61762 2.39789 7.68666 2.29181 7.77379 2.20251C7.86091 2.1132 7.96441 2.04243 8.07831 1.99427C8.19222 1.94611 8.31429 1.92151 8.4375 1.92188H11.5625C11.6857 1.92151 11.8078 1.94611 11.9217 1.99427C12.0356 2.04243 12.1391 2.1132 12.2262 2.20251C12.3133 2.29181 12.3824 2.39789 12.4294 2.51464C12.4764 2.6314 12.5004 2.75652 12.5 2.88282V4.48438" stroke="#A9A6A0" stroke-linecap="round" stroke-linejoin="round"/>
<path d="M10 7.04688V16.0156" stroke="#A9A6A0" stroke-linecap="round" stroke-linejoin="round"/>
<path d="M7.1875 7.04688L7.5 16.0156" stroke="#A9A6A0" stroke-linecap="round" stroke-linejoin="round"/>
<path d="M12.8125 7.04688L12.5 16.0156" stroke="#A9A6A0" stroke-linecap="round" stroke-linejoin="round"/>
</svg>
