<svg width="20" height="20" viewBox="0 0 20 20" fill="none" xmlns="http://www.w3.org/2000/svg">
<path d="M2.5 4.9C2.16863 4.9 1.9 5.16863 1.9 5.5C1.9 5.83137 2.16863 6.1 2.5 6.1H17.5C17.8313 6.1 18.1 5.83137 18.1 5.5C18.1 5.16863 17.8313 4.9 17.5 4.9H2.5Z" fill="#333333" stroke="#333333" stroke-width="0.2"/>
<path d="M2.5 7.9C2.16863 7.9 1.9 8.16863 1.9 8.5C1.9 8.83137 2.16863 9.1 2.5 9.1H17.5C17.8313 9.1 18.1 8.83137 18.1 8.5C18.1 8.16863 17.8313 7.9 17.5 7.9H2.5Z" fill="#333333" stroke="#333333" stroke-width="0.2"/>
<path d="M2.5 10.9C2.16863 10.9 1.9 11.1687 1.9 11.5C1.9 11.8313 2.16863 12.1 2.5 12.1H17.5C17.8313 12.1 18.1 11.8313 18.1 11.5C18.1 11.1687 17.8313 10.9 17.5 10.9H2.5Z" fill="#333333" stroke="#333333" stroke-width="0.2"/>
<path d="M2.5 13.9C2.16863 13.9 1.9 14.1687 1.9 14.5C1.9 14.8313 2.16863 15.1 2.5 15.1H12.5C12.8313 15.1 13.1 14.8313 13.1 14.5C13.1 14.1687 12.8313 13.9 12.5 13.9H2.5Z" fill="#333333" stroke="#333333" stroke-width="0.2"/>
</svg>
