<svg width="118" height="40" viewBox="0 0 118 40" fill="none" xmlns="http://www.w3.org/2000/svg">
<path d="M45.935 10V2.19H49.191C49.5357 2.19 49.851 2.26333 50.137 2.41C50.423 2.54933 50.6723 2.74 50.885 2.982C51.0977 3.21667 51.2627 3.48433 51.38 3.785C51.4973 4.07833 51.556 4.379 51.556 4.687C51.556 5.11233 51.4607 5.51933 51.27 5.908C51.0793 6.28933 50.8117 6.601 50.467 6.843C50.1223 7.07767 49.719 7.195 49.257 7.195H46.925V10H45.935ZM46.925 6.315H49.202C49.4733 6.315 49.708 6.24167 49.906 6.095C50.1113 5.94833 50.269 5.75033 50.379 5.501C50.4963 5.25167 50.555 4.98033 50.555 4.687C50.555 4.379 50.489 4.104 50.357 3.862C50.225 3.61267 50.0527 3.41833 49.84 3.279C49.6273 3.13967 49.3927 3.07 49.136 3.07H46.925V6.315ZM52.7885 10V2.19H56.1325C56.4772 2.19 56.7925 2.26333 57.0785 2.41C57.3645 2.54933 57.6138 2.74 57.8265 2.982C58.0392 3.21667 58.2042 3.48433 58.3215 3.785C58.4388 4.07833 58.4975 4.379 58.4975 4.687C58.4975 5.04633 58.4278 5.38733 58.2885 5.71C58.1565 6.03267 57.9658 6.30767 57.7165 6.535C57.4745 6.76233 57.1885 6.92 56.8585 7.008L58.7505 10H57.6285L55.8465 7.195H53.7785V10H52.7885ZM53.7785 6.315H56.1435C56.4148 6.315 56.6495 6.24167 56.8475 6.095C57.0528 5.941 57.2105 5.73933 57.3205 5.49C57.4378 5.24067 57.4965 4.973 57.4965 4.687C57.4965 4.39367 57.4305 4.126 57.2985 3.884C57.1665 3.63467 56.9942 3.43667 56.7815 3.29C56.5688 3.14333 56.3342 3.07 56.0775 3.07H53.7785V6.315ZM63.186 10.055C62.636 10.055 62.1373 9.945 61.69 9.725C61.2427 9.505 60.854 9.208 60.524 8.834C60.2013 8.45267 59.952 8.02733 59.776 7.558C59.6 7.08133 59.512 6.59367 59.512 6.095C59.512 5.57433 59.6037 5.07933 59.787 4.61C59.9777 4.13333 60.238 3.71167 60.568 3.345C60.9053 2.971 61.2977 2.67767 61.745 2.465C62.1923 2.245 62.68 2.135 63.208 2.135C63.758 2.135 64.2567 2.24867 64.704 2.476C65.1513 2.70333 65.5363 3.00767 65.859 3.389C66.1817 3.77033 66.431 4.19567 66.607 4.665C66.783 5.13433 66.871 5.61467 66.871 6.106C66.871 6.62667 66.7793 7.12533 66.596 7.602C66.4127 8.07133 66.1523 8.493 65.815 8.867C65.485 9.23367 65.0963 9.52333 64.649 9.736C64.2017 9.94867 63.714 10.055 63.186 10.055ZM60.513 6.095C60.513 6.491 60.5753 6.876 60.7 7.25C60.832 7.61667 61.0153 7.943 61.25 8.229C61.4847 8.515 61.767 8.74233 62.097 8.911C62.427 9.07967 62.7937 9.164 63.197 9.164C63.615 9.164 63.989 9.076 64.319 8.9C64.649 8.724 64.9277 8.48933 65.155 8.196C65.3897 7.90267 65.5657 7.57267 65.683 7.206C65.8077 6.83933 65.87 6.469 65.87 6.095C65.87 5.699 65.804 5.31767 65.672 4.951C65.5473 4.58433 65.364 4.258 65.122 3.972C64.8873 3.67867 64.605 3.45133 64.275 3.29C63.9523 3.12133 63.593 3.037 63.197 3.037C62.779 3.037 62.405 3.125 62.075 3.301C61.745 3.46967 61.4627 3.70067 61.228 3.994C61.0007 4.28733 60.8247 4.61733 60.7 4.984C60.5753 5.34333 60.513 5.71367 60.513 6.095ZM67.4387 8.834C67.578 8.92933 67.7687 9.021 68.0107 9.109C68.26 9.18967 68.5534 9.23 68.8907 9.23C69.2354 9.23 69.5177 9.175 69.7377 9.065C69.9577 8.94767 70.1264 8.77533 70.2437 8.548C70.361 8.31333 70.4417 8.01633 70.4857 7.657C70.5297 7.29767 70.5517 6.87233 70.5517 6.381V2.19H71.5417V6.161C71.5417 6.74033 71.5124 7.272 71.4537 7.756C71.395 8.24 71.2777 8.66167 71.1017 9.021C70.9257 9.373 70.6617 9.64433 70.3097 9.835C69.965 10.0257 69.503 10.121 68.9237 10.121C68.557 10.121 68.2344 10.0807 67.9557 10C67.677 9.91933 67.4204 9.79833 67.1857 9.637L67.4387 8.834ZM78.6296 9.12V10H73.3276V2.19H78.5306V3.07H74.3176V5.6H77.9806V6.425H74.3176V9.12H78.6296ZM79.3313 6.04C79.3313 5.56333 79.412 5.09767 79.5733 4.643C79.742 4.181 79.984 3.763 80.2993 3.389C80.622 3.00767 81.0143 2.707 81.4763 2.487C81.9383 2.25967 82.4627 2.146 83.0493 2.146C83.746 2.146 84.3437 2.30733 84.8423 2.63C85.341 2.94533 85.7113 3.35233 85.9533 3.851L85.1723 4.357C85.0183 4.027 84.8203 3.76667 84.5783 3.576C84.3437 3.378 84.087 3.23867 83.8083 3.158C83.537 3.07733 83.2693 3.037 83.0053 3.037C82.5727 3.037 82.1877 3.125 81.8503 3.301C81.5203 3.477 81.2417 3.71167 81.0143 4.005C80.787 4.29833 80.6147 4.62833 80.4973 4.995C80.3873 5.35433 80.3323 5.71733 80.3323 6.084C80.3323 6.48733 80.3983 6.876 80.5303 7.25C80.6697 7.624 80.8603 7.954 81.1023 8.24C81.3443 8.526 81.6303 8.75333 81.9603 8.922C82.2903 9.09067 82.6497 9.175 83.0383 9.175C83.3097 9.175 83.5883 9.12733 83.8743 9.032C84.1603 8.93667 84.428 8.79 84.6773 8.592C84.9267 8.38667 85.1247 8.12267 85.2713 7.8L86.0963 8.251C85.935 8.63967 85.6857 8.96967 85.3483 9.241C85.011 9.51233 84.6333 9.71767 84.2153 9.857C83.8047 9.99633 83.3977 10.066 82.9943 10.066C82.459 10.066 81.9677 9.95233 81.5203 9.725C81.073 9.49033 80.6843 9.18233 80.3543 8.801C80.0317 8.41233 79.7787 7.97967 79.5953 7.503C79.4193 7.019 79.3313 6.53133 79.3313 6.04ZM92.9674 3.07H90.2724V10H89.2824V3.07H86.5874V2.19H92.9674V3.07ZM52.689 23V17.038L50.115 21.625H49.51L46.925 17.038V23H45.935V15.19H46.98L49.807 20.261L52.645 15.19H53.679V23H52.689ZM57.9253 15.19H58.7613L61.9513 23H60.8953L59.9713 20.712H56.6933L55.7803 23H54.7243L57.9253 15.19ZM59.7513 19.942L58.3433 16.334L56.8913 19.942H59.7513ZM63.9836 17.016V23H62.9936V15.19H63.8296L68.6036 21.295V15.201H69.5936V23H68.6916L63.9836 17.016ZM73.8344 15.19H74.6704L77.8604 23H76.8044L75.8804 20.712H72.6024L71.6894 23H70.6334L73.8344 15.19ZM75.6604 19.942L74.2524 16.334L72.8004 19.942H75.6604ZM81.7477 23.055C81.2344 23.055 80.7541 22.945 80.3067 22.725C79.8667 22.4977 79.4817 22.197 79.1517 21.823C78.8217 21.4417 78.5651 21.0163 78.3817 20.547C78.1984 20.0703 78.1067 19.579 78.1067 19.073C78.1067 18.545 78.1984 18.0463 78.3817 17.577C78.5651 17.1003 78.8181 16.6787 79.1407 16.312C79.4707 15.9453 79.8557 15.6593 80.2957 15.454C80.7431 15.2413 81.2271 15.135 81.7477 15.135C82.5031 15.135 83.1264 15.2927 83.6177 15.608C84.1091 15.9233 84.4794 16.334 84.7287 16.84L83.9697 17.368C83.7424 16.9133 83.4307 16.576 83.0347 16.356C82.6387 16.136 82.2024 16.026 81.7257 16.026C81.3297 16.026 80.9704 16.1103 80.6477 16.279C80.3251 16.4477 80.0464 16.6787 79.8117 16.972C79.5844 17.258 79.4084 17.5843 79.2837 17.951C79.1664 18.3177 79.1077 18.699 79.1077 19.095C79.1077 19.513 79.1737 19.909 79.3057 20.283C79.4451 20.6497 79.6394 20.976 79.8887 21.262C80.1381 21.5407 80.4277 21.7607 80.7577 21.922C81.0877 22.0833 81.4434 22.164 81.8247 22.164C82.2721 22.164 82.6974 22.0503 83.1007 21.823C83.5041 21.5957 83.8854 21.2473 84.2447 20.778V21.801C83.5407 22.637 82.7084 23.055 81.7477 23.055ZM84.1237 19.854H82.4407V19.106H84.9597V23H84.1237V19.854ZM93.2193 23V17.038L90.6453 21.625H90.0403L87.4553 17.038V23H86.4653V15.19H87.5103L90.3373 20.261L93.1753 15.19H94.2093V23H93.2193ZM101.382 22.12V23H96.0795V15.19H101.283V16.07H97.0695V18.6H100.733V19.425H97.0695V22.12H101.382ZM103.73 17.016V23H102.74V15.19H103.576L108.35 21.295V15.201H109.34V23H108.438L103.73 17.016ZM116.837 16.07H114.142V23H113.152V16.07H110.457V15.19H116.837V16.07ZM48.311 28.19H49.147L52.337 36H51.281L50.357 33.712H47.079L46.166 36H45.11L48.311 28.19ZM50.137 32.942L48.729 29.334L47.277 32.942H50.137ZM53.3793 36V28.19H56.6353C56.98 28.19 57.2953 28.2633 57.5813 28.41C57.8673 28.5493 58.1167 28.74 58.3293 28.982C58.542 29.2167 58.707 29.4843 58.8243 29.785C58.9417 30.0783 59.0003 30.379 59.0003 30.687C59.0003 31.1123 58.905 31.5193 58.7143 31.908C58.5237 32.2893 58.256 32.601 57.9113 32.843C57.5667 33.0777 57.1633 33.195 56.7013 33.195H54.3693V36H53.3793ZM54.3693 32.315H56.6463C56.9177 32.315 57.1523 32.2417 57.3503 32.095C57.5557 31.9483 57.7133 31.7503 57.8233 31.501C57.9407 31.2517 57.9993 30.9803 57.9993 30.687C57.9993 30.379 57.9333 30.104 57.8013 29.862C57.6693 29.6127 57.497 29.4183 57.2843 29.279C57.0717 29.1397 56.837 29.07 56.5803 29.07H54.3693V32.315ZM60.2329 36V28.19H63.4889C63.8335 28.19 64.1489 28.2633 64.4349 28.41C64.7209 28.5493 64.9702 28.74 65.1829 28.982C65.3955 29.2167 65.5605 29.4843 65.6779 29.785C65.7952 30.0783 65.8539 30.379 65.8539 30.687C65.8539 31.1123 65.7585 31.5193 65.5679 31.908C65.3772 32.2893 65.1095 32.601 64.7649 32.843C64.4202 33.0777 64.0169 33.195 63.5549 33.195H61.2229V36H60.2329ZM61.2229 32.315H63.4999C63.7712 32.315 64.0059 32.2417 64.2039 32.095C64.4092 31.9483 64.5669 31.7503 64.6769 31.501C64.7942 31.2517 64.8529 30.9803 64.8529 30.687C64.8529 30.379 64.7869 30.104 64.6549 29.862C64.5229 29.6127 64.3505 29.4183 64.1379 29.279C63.9252 29.1397 63.6905 29.07 63.4339 29.07H61.2229V32.315Z" fill="#333333"/>
<circle cx="19.7061" cy="23.2354" r="16.2647" fill="#D6F164" stroke="#333333"/>
<circle cx="19.9999" cy="28.5292" r="10.9706" fill="#E4E1D9" stroke="#333333"/>
<circle cx="20" cy="36.4708" r="3.02941" fill="#FAFAFA" stroke="#333333"/>
<circle cx="20.0001" cy="32.9411" r="6.55882" fill="#FAFAFA" stroke="#333333"/>
<circle cx="20" cy="20" r="19.5" stroke="#333333"/>
</svg>
