<svg width="76" height="77" viewBox="0 0 76 77" fill="none" xmlns="http://www.w3.org/2000/svg">
<rect x="7.00962" y="1.46909" width="68" height="68" rx="7" transform="rotate(5 7.00962 1.46909)" stroke="#333333" stroke-width="2"/>
<path d="M39.0041 58.4283L55.3308 59.8567C55.8677 59.9037 56.3407 59.5579 56.3817 59.0886L58.2541 37.6874C58.2952 37.2173 57.8895 36.7947 57.3526 36.7477L41.0258 35.3193C40.4889 35.2723 40.0159 35.6181 39.9748 36.0881L38.414 53.9288" stroke="#333333" stroke-width="2" stroke-miterlimit="10" stroke-linecap="round"/>
<path d="M34.6576 44.612L18.0519 43.1591C17.5897 43.1187 17.1823 43.4606 17.1419 43.9227L16.1216 55.5843C16.0812 56.0464 16.4231 56.4539 16.8852 56.4943L33.4909 57.9471C33.953 57.9875 34.3605 57.6457 34.4009 57.1835L35.4212 45.522C35.4616 45.0598 35.1197 44.6524 34.6576 44.612Z" stroke="#333333" stroke-width="2" stroke-miterlimit="10" stroke-linecap="round"/>
<path d="M34.8081 41.2864L18.4813 39.858C17.9444 39.811 17.5387 39.3884 17.5798 38.9184L19.4522 17.5171C19.4932 17.0478 19.9662 16.702 20.5031 16.749L36.8299 18.1774C37.3668 18.2244 37.7725 18.647 37.7315 19.1163L36.1707 36.9556" stroke="#333333" stroke-width="2" stroke-miterlimit="10" stroke-linecap="round"/>
<path d="M41.1762 31.9945L57.7818 33.4473C58.244 33.4877 58.6514 33.1459 58.6919 32.6837L59.7121 21.0221C59.7526 20.56 59.4107 20.1526 58.9485 20.1121L42.3429 18.6593C41.8807 18.6189 41.4733 18.9608 41.4328 19.4229L40.4126 31.0845C40.3722 31.5466 40.714 31.9541 41.1762 31.9945Z" stroke="#333333" stroke-width="2" stroke-miterlimit="10" stroke-linecap="round"/>
</svg>
