<svg width="102" height="47" viewBox="0 0 102 47" fill="none" xmlns="http://www.w3.org/2000/svg">
<path d="M26.4999 23.9142L26.9141 23.5L26.4999 23.0858V2.82843C26.4999 1.93752 27.577 1.49136 28.207 2.12132L49.5857 23.5L28.207 44.8787C27.577 45.5086 26.4999 45.0625 26.4999 44.1716V23.9142ZM51.9999 44.1716V23.9142L52.4141 23.5L51.9999 23.0858V2.82843C51.9999 1.93752 53.077 1.49136 53.707 2.12132L75.0857 23.5L53.707 44.8787C53.077 45.5086 51.9999 45.0625 51.9999 44.1716ZM77.4999 23.9142L77.9141 23.5L77.4999 23.0858V2.82843C77.4999 1.93752 78.577 1.49135 79.207 2.12132L99.8786 22.7929C100.269 23.1834 100.269 23.8166 99.8786 24.2071L79.207 44.8787C78.577 45.5086 77.4999 45.0625 77.4999 44.1716V23.9142ZM2.70698 2.12132L24.0857 23.5L2.70698 44.8787C2.07702 45.5086 0.999878 45.0625 0.999878 44.1716V2.82843C0.999878 1.93752 2.07702 1.49136 2.70698 2.12132Z" fill="#D6F164" stroke="#333333" stroke-width="2"/>
</svg>
