<svg width="76" height="76" viewBox="0 0 76 76" fill="none" xmlns="http://www.w3.org/2000/svg">
<rect x="7.01011" y="1.08335" width="68" height="68" rx="7" transform="rotate(5 7.01011 1.08335)" fill="#F2F0EA" stroke="#333333" stroke-width="2"/>
<path d="M45.8289 54.0122L46.2107 49.649C46.3656 47.8649 46.002 46.074 45.1635 44.4916C44.325 42.9092 43.0474 41.6026 41.4842 40.7289L41.4714 40.7222L41.3923 40.6787" stroke="#333333" stroke-width="2" stroke-miterlimit="10" stroke-linecap="round"/>
<path d="M34.2863 39.9467C34.0975 40.0004 33.9112 40.0656 33.7274 40.1339C32.081 40.7465 30.6421 41.8135 29.5778 43.211C28.5135 44.6086 27.8674 46.2794 27.7146 48.0294L27.3328 52.394" stroke="#333333" stroke-width="2" stroke-miterlimit="10" stroke-linecap="round"/>
<path d="M48.5036 23.4411L48.1218 27.8051C47.9654 29.5791 47.3027 31.2709 46.2124 32.6791C45.1222 34.0873 43.6503 35.1526 41.972 35.7483C41.972 35.7483 41.972 35.7483 41.9671 35.7479C41.9002 35.7729 41.8336 35.7952 41.7664 35.8174" stroke="#333333" stroke-width="2" stroke-miterlimit="10" stroke-linecap="round"/>
<path d="M34.7073 35.2942C34.5206 35.201 34.3382 35.1014 34.1601 34.9954C32.6491 34.1054 31.4212 32.8057 30.6185 31.2466C29.8157 29.6876 29.471 27.9331 29.6242 26.1862L30.006 21.8223" stroke="#333333" stroke-width="2" stroke-miterlimit="10" stroke-linecap="round"/>
<path d="M33.7259 40.1352C33.9185 40.0935 34.1059 40.0307 34.2847 39.9479C34.7138 39.7486 35.083 39.44 35.3552 39.0531C35.6275 38.6661 35.7932 38.2144 35.8359 37.7432C35.8785 37.272 35.7966 36.7979 35.5982 36.3684C35.3999 35.9388 35.0921 35.5689 34.7058 35.2958C34.5363 35.1761 34.3536 35.0762 34.1613 34.998" stroke="#333333" stroke-width="2" stroke-miterlimit="10" stroke-linecap="round"/>
<path d="M41.4842 40.7285C41.4532 40.7124 41.4224 40.695 41.3923 40.6783C40.9498 40.4244 40.5884 40.0502 40.3499 39.5993C40.1114 39.1483 40.0056 38.639 40.0448 38.1304C40.084 37.6217 40.2666 37.1346 40.5714 36.7255C40.8762 36.3164 41.2907 36.0021 41.7668 35.819C41.8323 35.7931 41.8997 35.7702 41.9675 35.7495C41.9675 35.7495 41.9675 35.7495 41.9724 35.7499" stroke="#333333" stroke-width="2" stroke-miterlimit="10" stroke-linecap="round"/>
<path d="M28.0707 19.2695L50.8527 21.2627" stroke="#333333" stroke-width="2" stroke-miterlimit="10" stroke-linecap="round"/>
<path d="M24.9822 54.5713L47.7642 56.5645" stroke="#333333" stroke-width="2" stroke-miterlimit="10" stroke-linecap="round"/>
<path d="M37.9382 37.0707C37.7349 36.4142 36.8029 33.5507 35.5295 31.8576C35.5203 31.8451 35.5149 31.8303 35.514 31.8149C35.513 31.7994 35.5165 31.784 35.5241 31.7705C35.5316 31.757 35.5429 31.746 35.5566 31.7388C35.5702 31.7315 35.5857 31.7283 35.6011 31.7297L41.2732 32.2259C41.2888 32.2272 41.3036 32.233 41.316 32.2425C41.3283 32.2521 41.3376 32.265 41.3427 32.2798C41.3478 32.2945 41.3485 32.3104 41.3447 32.3255C41.341 32.3407 41.3329 32.3544 41.3215 32.365C40.0093 33.5973 38.3988 36.4483 38.0489 37.0818C38.0433 37.0923 38.0347 37.1009 38.0242 37.1065C38.0137 37.1121 38.0017 37.1145 37.9899 37.1133C37.978 37.1121 37.9667 37.1074 37.9576 37.0998C37.9484 37.0922 37.9416 37.0821 37.9382 37.0707Z" stroke="#333333" stroke-width="2" stroke-miterlimit="10" stroke-linecap="round"/>
<path d="M35.1084 48.7735L30.9605 51.8979C30.9502 51.9054 30.9425 51.9159 30.9383 51.9279C30.9342 51.9399 30.9338 51.9529 30.9373 51.9651C30.9407 51.9773 30.9478 51.9882 30.9576 51.9963C30.9674 52.0044 30.9794 52.0093 30.9921 52.0103L42.2896 52.9987C42.3023 52.9999 42.315 52.9972 42.326 52.9909C42.3371 52.9847 42.346 52.9752 42.3515 52.9637C42.357 52.9523 42.3589 52.9394 42.3569 52.9269C42.3549 52.9143 42.3491 52.9027 42.3403 52.8935L38.7987 49.0963C38.3319 48.5964 37.6968 48.2868 37.0154 48.2272C36.3341 48.1676 35.6548 48.3622 35.1084 48.7735Z" stroke="#333333" stroke-width="2" stroke-miterlimit="10" stroke-linecap="round"/>
</svg>
