<svg width="64" height="64" viewBox="0 0 64 64" fill="none" xmlns="http://www.w3.org/2000/svg">
<path d="M0 8C0 3.58172 3.58172 0 8 0H56C60.4183 0 64 3.58172 64 8V56C64 60.4183 60.4183 64 56 64H8C3.58172 64 0 60.4183 0 56V8Z" fill="#C1C0BD"/>
<path d="M31.6329 13.5996C30.7451 13.5996 29.896 13.9677 29.2719 14.619C28.6481 15.2699 28.2995 16.1504 28.2995 17.0663H28.8329C28.8329 16.2847 29.1305 15.5374 29.6569 14.988C30.183 14.4391 30.894 14.1329 31.6329 14.1329C32.3717 14.1329 33.0827 14.4391 33.6088 14.988C34.1352 15.5374 34.4329 16.2847 34.4329 17.0663H34.9662C34.9662 16.1504 34.6177 15.2699 33.9939 14.619C33.3697 13.9677 32.5207 13.5996 31.6329 13.5996Z" fill="#FAFAFA"/>
<path d="M37.0995 17.0663H37.6329V19.7329C37.6329 21.2057 36.439 22.3996 34.9662 22.3996H28.0329C26.5601 22.3996 25.3662 21.2057 25.3662 19.7329V17.0663H25.8995V19.7329C25.8995 20.9112 26.8547 21.8663 28.0329 21.8663H34.9662C36.1444 21.8663 37.0995 20.9112 37.0995 19.7329V17.0663Z" fill="#FAFAFA"/>
<path d="M28.833 16.7988H21.633C18.982 16.7988 16.833 18.9479 16.833 21.5988V45.5988C16.833 48.2498 18.982 50.3988 21.633 50.3988H41.3663C44.0173 50.3988 46.1663 48.2498 46.1663 45.5988V21.5988C46.1663 18.9479 44.0173 16.7988 41.3663 16.7988H34.433V17.3322H41.3663C43.7228 17.3322 45.633 19.2424 45.633 21.5988V45.5988C45.633 47.9552 43.7228 49.8655 41.3663 49.8655H21.633C19.2766 49.8655 17.3663 47.9552 17.3663 45.5988V21.5988C17.3663 19.2424 19.2766 17.3322 21.633 17.3322H28.833V16.7988Z" fill="#FAFAFA"/>
<rect x="22.54" y="30.7188" width="7.68" height="0.853333" fill="#FAFAFA"/>
<rect x="32.7803" y="30.7188" width="7.68" height="0.853333" fill="#FAFAFA"/>
<rect x="22.54" y="40.959" width="7.68" height="0.853333" fill="#FAFAFA"/>
<rect x="32.7803" y="40.959" width="7.68" height="0.853333" fill="#FAFAFA"/>
</svg>
