<svg width="74" height="74" viewBox="0 0 74 74" fill="none" xmlns="http://www.w3.org/2000/svg">
<mask id="mask0_229_1453" style="mask-type:alpha" maskUnits="userSpaceOnUse" x="0" y="4" width="74" height="67">
<path d="M43.1724 37.0535C43.1724 40.4982 40.38 43.2906 36.9353 43.2906C33.4907 43.2906 30.6982 40.4982 30.6982 37.0535C30.6982 33.6089 33.4907 30.8164 36.9353 30.8164C40.38 30.8164 43.1724 33.6089 43.1724 37.0535Z" fill="#61DAFB" stroke="black"/>
<path d="M37.2841 61.4694L36.9379 61.1328L36.5894 61.467C33.9662 63.9823 31.3748 65.981 28.9332 67.3305C26.4874 68.6824 24.2245 69.365 22.247 69.2968L22.2384 69.2965H22.2297C20.9206 69.2965 19.7111 69.0206 18.72 68.426L18.7201 68.4259L18.7099 68.4201C17.0143 67.4559 15.8101 65.6906 15.1808 63.1735C14.5505 60.6523 14.5078 57.4105 15.1171 53.5755L15.1172 53.575C15.3318 52.2157 15.6184 50.854 15.9777 49.4167L16.099 48.9316L15.6139 48.8103C14.189 48.4541 12.9052 48.0264 11.6171 47.5254L11.6171 47.5254L11.612 47.5235C7.99245 46.1617 5.21644 44.5262 3.35305 42.7241C1.49408 40.9262 0.5625 38.9839 0.5625 36.9803C0.5625 35.0151 1.49204 33.0906 3.35305 31.2908C5.21586 29.4892 7.98977 27.8369 11.6052 26.4397C12.906 26.0061 14.1999 25.575 15.6363 25.144L16.0935 25.0069L15.9777 24.5439C15.6184 23.1066 15.3318 21.7448 15.1172 20.3855L15.1172 20.3855L15.1164 20.3806C14.4714 16.5461 14.4968 13.3243 15.1264 10.8146C15.7544 8.31137 16.9749 6.54143 18.7126 5.5389L18.7127 5.53896L18.72 5.53455C19.7111 4.93992 20.9206 4.66406 22.2297 4.66406C24.2144 4.66406 26.4827 5.38477 28.9199 6.76346C31.3531 8.1399 33.9263 10.1563 36.5119 12.706L36.8606 13.0498L37.2116 12.7084C39.8333 10.1586 42.4431 8.1414 44.8954 6.76422C47.3525 5.38429 49.6209 4.66406 51.5687 4.66406C52.8779 4.66406 54.0874 4.93992 55.0785 5.53455L55.0784 5.53462L55.0859 5.5389C56.8216 6.54027 58.0434 8.32661 58.6811 10.8689C59.3203 13.417 59.3632 16.695 58.7536 20.6038C58.5389 21.9627 58.2525 23.3242 57.8932 24.7612L57.7719 25.2463L58.257 25.3675C59.682 25.7238 60.9657 26.1515 62.2538 26.6524L62.2538 26.6524L62.259 26.6544C65.8785 28.0162 68.6545 29.6516 70.5179 31.4538C72.3768 33.2516 73.3084 35.194 73.3084 37.1976C73.3084 39.1628 72.3789 41.0872 70.5179 42.8871C68.6551 44.6887 65.8812 46.3409 62.2658 47.7381C60.9649 48.1718 59.6711 48.6029 58.2346 49.0338L57.7774 49.171L57.8932 49.634C58.2525 51.0713 58.5391 52.4331 58.7537 53.7923L58.7545 53.7973C59.3996 57.6318 59.3741 60.8535 58.7445 63.3633C58.1165 65.8665 56.896 67.6364 55.1583 68.639L55.1583 68.6389L55.1509 68.6433C54.1599 69.2379 52.9503 69.5138 51.6412 69.5138C49.6565 69.5138 47.3881 68.7931 44.9413 67.414C42.4985 66.0372 39.9066 64.0201 37.2841 61.4694ZM32.9064 51.549L31.8346 51.4894L32.4787 52.3482C33.7957 54.1041 35.1834 55.7106 36.5647 57.2373L36.9355 57.6471L37.3062 57.2373C38.6875 55.7106 40.0752 54.1041 41.3922 52.3482L42.0363 51.4894L40.9645 51.549C39.6769 51.6205 38.3147 51.6206 36.9355 51.6206C35.5562 51.6206 34.1941 51.6205 32.9064 51.549ZM24.3269 44.3332L24.327 44.3331L24.3199 44.3217C23.6075 43.1819 22.9636 41.9662 22.3872 40.8134L21.9051 39.8492L21.4804 40.8401C20.6034 42.8863 19.8741 44.9292 19.2199 46.8916L19.0433 47.4215L19.5895 47.5386C21.6316 47.9762 23.7461 48.3407 26.0052 48.6322L27.1153 48.7755L26.4812 47.8531C25.8329 46.9101 25.2834 45.9693 24.6993 44.9693C24.5771 44.76 24.4533 44.5482 24.3269 44.3332ZM19.5895 26.6393L19.0615 26.7524L19.2149 27.2702C19.8 29.2449 20.5319 31.2944 21.4837 33.4178L21.9289 34.411L22.3924 33.4262C22.9621 32.2155 23.605 31.072 24.3269 29.8447C25.0474 28.6199 25.7683 27.4664 26.4932 26.3065L27.0532 25.4104L26.0052 25.5456C23.7461 25.8371 21.6316 26.2017 19.5895 26.6393ZM23.2281 36.8358L23.1236 37.0527L23.2281 37.2696C24.1737 39.2337 25.1943 41.2022 26.362 43.173C27.453 45.0639 28.6189 46.9587 29.9321 48.8556L30.069 49.0533L30.3088 49.0698C32.422 49.2155 34.6068 49.2883 36.9355 49.2883C39.1921 49.2883 41.3764 49.2155 43.5609 49.0699L43.8097 49.0533L43.9462 48.8446L43.9501 48.8385C45.1783 46.9601 46.4157 45.0677 47.509 43.1729C48.6767 41.2021 49.6972 39.2337 50.6428 37.2696L50.7473 37.0527L50.6428 36.8358C49.6972 34.8718 48.6768 32.9034 47.509 30.9327C46.418 29.0417 45.252 27.1468 43.9388 25.2498L43.8019 25.0522L43.5621 25.0356C41.4489 24.8899 39.2641 24.8171 36.9355 24.8171C34.6788 24.8171 32.4945 24.8899 30.31 25.0355L30.0612 25.0521L29.9248 25.2608L29.9207 25.267C28.6925 27.1454 27.4552 29.0378 26.3619 30.9325C25.1942 32.9033 24.1737 34.8718 23.2281 36.8358ZM51.5634 33.3784L52.0552 34.2892L52.463 33.3378C53.3401 31.2911 54.0699 29.2472 54.7251 27.2087L54.8942 26.6826L54.3539 26.5668C52.3117 26.1292 50.1973 25.7647 47.9382 25.4732L46.828 25.33L47.4622 26.2524C48.1104 27.1953 48.66 28.1361 49.244 29.1361C49.3648 29.3428 49.487 29.552 49.6118 29.7643L51.5634 33.3784ZM52.463 40.7676L52.0509 39.8062L51.5615 40.7306C50.908 41.965 50.2625 43.184 49.6187 44.257L49.6165 44.2607C48.896 45.4855 48.1751 46.6391 47.4502 47.7989L46.8901 48.695L47.9382 48.5598C50.1973 48.2683 52.3117 47.9038 54.3539 47.4662L54.9001 47.3491L54.7234 46.8191C54.0693 44.8568 53.3399 42.8139 52.463 40.7676ZM38.8885 59.0233L38.5581 59.3764L38.9 59.7184C41.0915 61.9099 43.3143 63.7496 45.4508 65.0445C47.5809 66.3354 49.6651 67.109 51.5687 67.109C52.4153 67.109 53.2391 66.9569 53.9241 66.5324C55.3365 65.7375 56.1963 64.1169 56.5879 62.0098C56.9825 59.8865 56.9212 57.1797 56.4086 54.0677L56.4084 54.0668L56.4065 54.0548C56.1904 52.7586 55.9694 51.4328 55.6001 50.1033L55.4712 49.6392L55.0026 49.7507C51.9868 50.4688 48.7517 50.9723 45.3688 51.2602L45.1393 51.2798L45.005 51.4668C42.9858 54.2793 40.971 56.7971 38.8885 59.0233ZM57.5739 27.4443L57.0962 27.3078L56.9567 27.7846C56.0968 30.7223 54.8762 33.7401 53.4335 36.8418L53.3354 37.0527L53.4335 37.2636C54.8728 40.358 56.0242 43.3805 56.9599 46.3315L57.1057 46.7912L57.5704 46.6622C58.89 46.2956 60.208 45.8562 61.3791 45.4171L61.3822 45.4159C64.3457 44.2817 66.7031 42.989 68.329 41.5981C69.9492 40.2121 70.9036 38.6731 70.9036 37.0527C70.9036 35.1723 69.5177 33.3397 67.2525 31.7283C64.9636 30.1 61.6641 28.6129 57.5739 27.4443ZM53.9915 7.57017L53.9915 7.57012L53.9848 7.56641C53.2464 7.1562 52.508 6.99639 51.6412 6.99639C49.7351 6.99639 47.6499 7.79007 45.5219 9.08893C43.3869 10.3921 41.1653 12.2307 38.9755 14.3841L38.6277 14.726L38.9609 15.0822C41.0472 17.3123 43.1322 19.8289 45.0725 22.6316L45.2029 22.82L45.4307 22.8442C48.8204 23.2048 52.0628 23.7093 55.0861 24.3572L55.5767 24.4623L55.6801 23.9713C55.7412 23.6812 55.8025 23.3933 55.8632 23.108C56.089 22.0477 56.3074 21.0221 56.4801 20.0433L56.4801 20.0433L56.4812 20.0367C56.9939 16.8872 57.0368 14.1802 56.6327 12.066C56.2307 9.96236 55.3676 8.36252 53.9915 7.57017ZM40.9645 22.5565L42.0657 22.6176L41.386 21.7491C40.0769 20.0763 38.6927 18.4006 37.3062 16.8682L36.9355 16.4584L36.5647 16.8682C35.1834 18.3948 33.7957 20.0013 32.4787 21.7572L31.8346 22.616L32.9064 22.5565C34.1941 22.4849 35.5562 22.4848 36.9355 22.4848C38.3147 22.4848 39.6769 22.4849 40.9645 22.5565ZM34.9824 15.0822L35.3128 14.729L34.9709 14.387C32.7794 12.1955 30.5566 10.3558 28.4201 9.06095C26.29 7.76998 24.2058 6.99639 22.3022 6.99639C21.4537 6.99639 20.628 7.14923 19.9422 7.57588C18.5374 8.40519 17.6758 10.0182 17.283 12.1224C16.8883 14.2371 16.9498 16.9259 17.4623 20.0377L17.4625 20.0386L17.4644 20.0505C17.6805 21.3467 17.9015 22.6726 18.2708 24.0021L18.3997 24.4663L18.8683 24.3547C21.8841 23.6366 25.1193 23.1331 28.5021 22.8452L28.7316 22.8257L28.8659 22.6386C30.8851 19.8261 32.8999 17.3083 34.9824 15.0822ZM16.297 46.6612L16.7715 46.7967L16.9133 46.3241C17.7741 43.4547 18.996 40.3626 20.4374 37.2636L20.5355 37.0527L20.4374 36.8418C18.9981 33.7474 17.8467 30.7249 16.911 27.7739L16.7652 27.3142L16.3006 27.4433C14.9809 27.8098 13.6629 28.2492 12.4918 28.6884L12.4887 28.6896C9.52523 29.8237 7.16776 31.1164 5.54188 32.5074C3.92176 33.8934 2.96727 35.4323 2.96727 37.0527C2.96727 38.9331 4.35326 40.7657 6.61843 42.3771C8.90735 44.0054 12.2068 45.4925 16.297 46.6612ZM17.4633 54.0621L17.4632 54.0621L17.4623 54.0677C16.9497 57.1797 16.8884 59.8865 17.283 62.0098C17.6756 64.1222 18.5387 65.7456 19.9575 66.5384L19.9585 66.539C20.6969 66.9492 21.4354 67.109 22.3022 67.109C24.2083 67.109 26.2935 66.3153 28.4214 65.0165C30.5565 63.7133 32.7781 61.8747 34.9679 59.7213L35.3156 59.3794L34.9824 59.0233C32.8962 56.7931 30.8112 54.2765 28.8708 51.4738L28.7404 51.2855L28.5126 51.2612C25.123 50.9006 21.8806 50.3961 18.8573 49.7482L18.3666 49.6431L18.2633 50.1341C18.2022 50.4242 18.1409 50.7121 18.0801 50.9974C17.8544 52.0577 17.636 53.0833 17.4633 54.0621Z" fill="#61DAFB" stroke="black"/>
</mask>
<g mask="url(#mask0_229_1453)">
<rect y="3.48242" width="74" height="66.1647" fill="#C1C0BD"/>
</g>
</svg>
