<svg width="67" height="64" viewBox="0 0 67 64" fill="none" xmlns="http://www.w3.org/2000/svg">
<path d="M20.2953 44.5395C-2.08416 11.4176 40.6954 -20.9112 50.1137 20.6197L45.603 19.1206C35.2887 -11.2447 8.13025 15.5041 23.0795 41.5176C23.6854 41.2584 24.3527 41.1149 25.0537 41.1149C27.8217 41.1149 30.0656 43.3527 30.0656 46.1132C30.0656 48.8736 27.8217 51.1114 25.0537 51.1114C22.2857 51.1114 20.0418 48.8736 20.0418 46.1132C20.0418 45.5633 20.1309 45.0343 20.2953 44.5395Z" fill="#C1C0BD" stroke="#C1C0BD"/>
<path d="M32.8397 20.9595C72.8151 18.5463 79.0256 71.7152 38.3657 58.7231L41.9507 55.6086C73.4196 62.1623 64.0992 25.2479 34.0368 24.8859C33.9531 25.538 33.7383 26.1843 33.3824 26.7865C31.9772 29.1648 28.9048 29.9567 26.52 28.5553C24.1353 27.1538 23.3412 24.0898 24.7465 21.7115C26.1517 19.3333 29.2241 18.5414 31.6089 19.9428C32.0838 20.2219 32.4957 20.567 32.8397 20.9595Z" fill="#C1C0BD" stroke="#C1C0BD"/>
<path d="M46.8423 43.8509C29.4286 79.8173 -20.1268 59.2524 11.1007 30.2148L12.0748 34.8559C-9.02998 59.0399 27.8219 68.9592 42.8221 42.9748C42.2924 42.5835 41.8318 42.0809 41.4787 41.4771C40.0841 39.0926 40.8919 36.0321 43.2829 34.6413C45.6739 33.2505 48.7427 34.0561 50.1373 36.4406C51.5318 38.8251 50.7241 41.8856 48.3331 43.2764C47.8568 43.5534 47.3537 43.7432 46.8423 43.8509Z" fill="#C1C0BD" stroke="#C1C0BD"/>
</svg>
