<svg width="74" height="74" viewBox="0 0 74 74" fill="none" xmlns="http://www.w3.org/2000/svg">
<path d="M66.341 4.625H7.659C5.98337 4.625 4.625 5.98337 4.625 7.659V66.341C4.625 68.0166 5.98337 69.375 7.659 69.375H66.341C68.0166 69.375 69.375 68.0166 69.375 66.341V7.659C69.375 5.98337 68.0166 4.625 66.341 4.625Z" fill="#C1C0BD"/>
<path fill-rule="evenodd" clip-rule="evenodd" d="M42.1914 54.9433V62.0381C43.4805 62.6743 44.8542 63.1221 46.2706 63.3677C47.9074 63.6699 49.5688 63.8186 51.2333 63.8117C52.8554 63.8195 54.4739 63.6559 56.0618 63.3238C57.4874 63.0357 58.8476 62.487 60.074 61.7051C61.2125 60.9701 62.1509 59.9642 62.805 58.7774C63.9766 56.32 64.1311 53.4996 63.2351 50.9288C62.857 49.9675 62.2937 49.0898 61.5771 48.3457C60.8079 47.5546 59.9342 46.8722 58.9801 46.3177C57.8818 45.6744 56.7406 45.1073 55.5646 44.6203C54.6396 44.2364 53.8071 43.8634 53.0671 43.5011C52.4098 43.1864 51.7808 42.8158 51.187 42.3934C50.7219 42.0673 50.318 41.6618 49.9938 41.1955C49.7136 40.7721 49.5677 40.274 49.5752 39.7664C49.569 39.2992 49.6992 38.8403 49.9498 38.4459C50.222 38.0332 50.5851 37.6883 51.0113 37.4377C51.5322 37.131 52.0991 36.91 52.6901 36.7832C53.4158 36.622 54.1576 36.5444 54.9009 36.552C55.526 36.5542 56.1503 36.599 56.7694 36.6861C57.4379 36.7765 58.0993 36.9133 58.7489 37.0954C59.4096 37.2786 60.0558 37.5104 60.6821 37.7892C61.2899 38.0601 61.8713 38.3868 62.4188 38.7651V32.1444C61.279 31.7131 60.097 31.4031 58.8923 31.2194C57.4375 31.0077 55.9686 30.908 54.4985 30.9211C52.8916 30.9124 51.2894 31.0948 49.7255 31.4645C48.312 31.7875 46.9679 32.3616 45.7573 33.1596C44.6326 33.9087 43.704 34.9166 43.0493 36.0987C42.3555 37.4115 42.0122 38.8811 42.0526 40.3653C42.0014 42.3281 42.6479 44.2455 43.8772 45.7766C45.3854 47.4741 47.2872 48.7756 49.4156 49.5667C50.3869 49.9676 51.2926 50.3599 52.1328 50.7438C52.8909 51.0811 53.6195 51.481 54.3112 51.9394C54.8691 52.3023 55.359 52.7601 55.7588 53.2922C56.1104 53.7748 56.2969 54.3579 56.2907 54.9549C56.2939 55.4023 56.179 55.8426 55.9577 56.2314C55.7118 56.6492 55.3662 56.9996 54.9518 57.2512C54.4332 57.5673 53.8659 57.7955 53.2729 57.9264C52.5004 58.0991 51.7103 58.1806 50.9188 58.1692C49.3655 58.1664 47.8246 57.8925 46.3654 57.3599C44.8411 56.8098 43.4275 55.9914 42.1914 54.9433ZM30.2728 37.2804H39.5228V31.4367H13.7314V37.2804H22.9398V63.3053H30.2728V37.2804Z" fill="#FAFAFA"/>
</svg>
